<svg xmlns="http://www.w3.org/2000/svg" width="46" height="46" viewBox="0 0 250 250" style="margin-bottom:0;flex:none"><path d="M237.5 227.9c0 5.3-4.3 9.6-9.5 9.6H22.1c-5.3 0-9.6-4.3-9.6-9.5V22.1c0-5.3 4.3-9.6 9.5-9.6h205.9c5.3 0 9.6 4.3 9.6 9.5v205.9z" fill="#f08705"/><path d="M237.5 227.9c0 5.3-4.3 9.6-9.5 9.6H89.6L44.8 192l27.9-45.5 82.7-102.7 82.1 84.5v99.6z" fill="#df6c0c"/><path d="M197.1 138.3h-23.7l-25-42.7c5.7-1.2 9.8-6.2 9.7-12V51.5c0-6.8-5.4-12.3-12.2-12.3H104.1c-6.8 0-12.3 5.4-12.3 12.2v32.2c0 5.8 4 10.8 9.7 12l-25 42.7H52.9c-6.8 0-12.3 5.4-12.3 12.2v32.2c0 6.8 5.4 12.3 12.2 12.3H94.6c6.8 0 12.3-5.4 12.3-12.2v-32.2c0-6.8-5.4-12.3-12.2-12.3h-4.1l24.8-42.4h19.3l24.9 42.4h-4.1c-6.8 0-12.3 5.4-12.3 12.2v32.2c0 6.8 5.4 12.3 12.2 12.3H197.2c6.8 0 12.3-5.4 12.3-12.2v-32.2c0-6.8-5.4-12.3-12.2-12.3h-.2z" fill="#fff"/></svg>
